<svg width="5599" height="5596" viewBox="0 0 5599 5596" fill="none" xmlns="http://www.w3.org/2000/svg">
<path d="M2278.25 49.1728C1894.9 125.843 1623.07 232.716 1314.07 425.553C1098 560.306 1049.21 599.803 800.61 848.4C412.614 1238.72 154.723 1731.27 50.1735 2277.25C-86.9032 3004.45 61.7902 3738.63 468.374 4349.66C881.927 4972.32 1523.17 5399.81 2278.25 5555.47C2538.46 5608.91 3054.24 5608.91 3319.1 5557.8C3879.03 5446.28 4362.28 5190.71 4785.13 4777.16C4882.71 4684.22 4961.7 4602.91 4961.7 4598.26C4961.7 4586.64 5147.57 4333.4 5170.8 4310.17C5214.94 4268.35 5410.1 3838.53 5468.19 3657.31C5568.09 3343.66 5600.62 3129.91 5598.29 2800C5593.65 2316.75 5500.71 1919.46 5293.94 1522.17C5168.48 1275.89 4901.29 918.099 4740.98 778.699C4675.93 720.616 4624.82 667.179 4629.46 655.563C4634.11 646.269 4624.82 639.299 4608.55 639.299C4589.97 639.299 4536.53 604.449 4490.06 560.306C4443.6 518.486 4404.1 485.959 4404.1 490.606C4404.1 495.253 4346.02 462.726 4273.99 416.259C4016.1 251.303 3637.4 107.256 3277.28 32.9094C3028.69 -15.8806 2566.34 -8.91057 2278.25 49.1728ZM4622.49 769.406C4629.46 790.316 4636.43 1454.79 4636.43 2247.05C4634.11 3819.94 4636.43 3799.03 4499.36 3908.23C4436.63 3957.02 4213.59 4019.75 2487.35 4482.09C2169.05 4568.06 1729.94 4686.55 1513.87 4744.63C1297.8 4802.71 1088.7 4851.5 1049.21 4853.83L977.184 4856.15V3357.6C977.184 1956.63 979.507 1854.4 1019 1782.38C1042.24 1740.56 1079.41 1698.74 1100.32 1691.77C1121.23 1682.48 1144.46 1668.54 1151.43 1659.24C1158.4 1652.27 1321.04 1601.16 1511.55 1550.05C2129.56 1382.77 2619.78 1250.34 2952.02 1164.37C3130.91 1117.91 3309.81 1071.44 3346.98 1059.82C3386.48 1048.21 3537.5 1006.39 3683.87 966.89C3830.24 927.393 4081.16 857.693 4241.47 813.549C4578.35 722.939 4603.91 718.293 4622.49 769.406Z" fill="#004AA1"/>
<path d="M3474.77 1501.26C3456.18 1515.2 3130.91 1605.81 2754.53 1705.71L2069.15 1886.93L2062.18 2974.25C2059.86 3573.67 2064.5 4070.86 2076.12 4082.48C2087.74 4094.1 2145.82 4087.13 2208.55 4066.22C2271.28 4047.63 2327.04 4038.34 2334.01 4042.98C2338.66 4049.95 2357.24 4042.98 2375.83 4029.04C2392.09 4015.1 2406.03 4008.13 2406.03 4015.1C2406.03 4019.75 2445.53 4012.78 2494.32 3996.52L2580.28 3966.31L2587.25 3617.81L2594.22 3271.64L2831.2 3211.23C2961.31 3178.7 3105.36 3143.85 3149.5 3134.56C3193.64 3127.59 3242.43 3111.33 3254.05 3102.03C3267.99 3090.42 3302.84 3078.8 3335.37 3074.15C3393.45 3067.18 3393.45 3064.86 3400.42 2816.26C3402.74 2679.19 3400.42 2567.67 3391.13 2567.67C3381.83 2567.67 3305.16 2586.25 3221.52 2611.81C3096.06 2646.66 2889.29 2702.42 2633.72 2769.8C2596.55 2779.09 2591.9 2755.86 2591.9 2511.91V2247.05L2668.57 2221.49C2766.15 2191.29 3165.76 2084.41 3370.22 2033.3L3532.85 1993.8L3537.5 1735.91C3539.82 1591.87 3532.85 1475.7 3525.88 1478.02C3516.59 1478.02 3493.35 1489.64 3474.77 1501.26Z" fill="#004AA1"/>
</svg>
