<svg width="512" height="512" viewBox="0 0 512 512" fill="none" xmlns="http://www.w3.org/2000/svg">
<g clip-path="url(#clip0_390_910)">
<path d="M256 512C397.385 512 512 397.385 512 256C512 114.615 397.385 0 256 0C114.615 0 0 114.615 0 256C0 397.385 114.615 512 256 512Z" fill="#26008E"/>
<path d="M512 256C512 253.089 511.934 250.195 511.837 247.308L332.565 68.036C332.565 68.036 319.575 52.999 255.997 52.999C192.418 52.999 166.158 129.847 166.158 129.847L122.723 432.443L195.019 504.673C214.979 509.548 235.453 512.008 256 512C397.385 512 512 397.385 512 256Z" fill="#371690"/>
<path d="M256 34.76C198.158 34.76 151.101 81.818 151.101 139.66V226.433H188.101V139.66C188.101 102.22 218.561 71.76 256 71.76L283.512 54.094L256 34.76Z" fill="white"/>
<path d="M256 34.76V71.76C293.44 71.76 323.899 102.22 323.899 139.66V226.433H360.899V139.66C360.899 81.818 313.842 34.76 256 34.76Z" fill="#E0E0E0"/>
<path d="M255.997 196.551H166.666C132.336 196.551 104.506 225.723 104.506 261.709V386.357C104.506 422.343 132.336 451.515 166.666 451.515H256L358.04 383.594L360.9 320.791L255.997 196.551Z" fill="#FF00AD"/>
<path d="M345.334 196.551H256V451.515H345.334C379.664 451.515 407.494 422.343 407.494 386.357V261.709C407.494 225.723 379.664 196.551 345.334 196.551Z" fill="#F823D4"/>
<path d="M180.068 324.033C180.068 282.097 214.064 248.101 256 248.101C256 248.101 312.401 282.097 312.401 324.033C312.401 365.969 256 399.965 256 399.965C214.064 399.966 180.068 365.969 180.068 324.033Z" fill="white"/>
<path d="M256 248.101V399.966C297.936 399.966 331.932 365.97 331.932 324.034C331.932 282.097 297.936 248.101 256 248.101Z" fill="#E0E0E0"/>
<path d="M257.072 376.385C263.369 375.86 268.049 370.33 267.525 364.033C267 357.735 261.47 353.055 255.173 353.58C248.875 354.104 244.195 359.634 244.72 365.932C245.244 372.229 250.774 376.909 257.072 376.385Z" fill="#F700FF"/>
<path d="M279.278 325.733C276.01 329.158 272.028 331.822 267.616 333.538V345.525H244.385V312.491H256C257.203 312.495 258.393 312.252 259.499 311.778C260.604 311.304 261.601 310.609 262.427 309.735C264.115 307.953 264.967 305.615 264.843 303.153C264.611 298.615 260.723 294.867 256.186 294.774C251.633 294.681 247.838 297.949 247.219 302.378V302.408H223.911C223.962 301.325 224.06 300.245 224.205 299.171C226.451 283.095 240.42 271.248 256.651 271.542C273.393 271.882 287.176 285.232 288.044 301.943C288.508 310.834 285.395 319.274 279.278 325.733Z" fill="#F700FF"/>
</g>
<defs>
<clipPath id="clip0_390_910">
<rect width="512" height="512" fill="white"/>
</clipPath>
</defs>
</svg>
