<svg width="512" height="512" viewBox="0 0 512 512" fill="none" xmlns="http://www.w3.org/2000/svg">
<path d="M293.333 477.333C291.211 477.333 289.176 476.491 287.676 474.99C286.176 473.49 285.333 471.455 285.333 469.333V405.333C285.333 403.212 286.176 401.177 287.676 399.677C289.176 398.176 291.211 397.333 293.333 397.333C295.455 397.333 297.49 398.176 298.99 399.677C300.49 401.177 301.333 403.212 301.333 405.333V469.333C301.333 471.455 300.49 473.49 298.99 474.99C297.49 476.491 295.455 477.333 293.333 477.333Z" fill="black"/>
<path d="M442.155 227.232C435.395 228.755 429.367 232.563 425.088 238.014C420.809 243.464 418.541 250.224 418.667 257.152V333.333H382.613C378.422 333.388 374.367 334.831 371.084 337.437C367.801 340.043 365.474 343.664 364.469 347.733C363.073 352.797 360.053 357.263 355.874 360.446C351.694 363.628 346.586 365.352 341.333 365.352C336.08 365.352 330.972 363.628 326.793 360.446C322.614 357.263 319.594 352.797 318.197 347.733C317.192 343.664 314.866 340.043 311.583 337.437C308.299 334.831 304.245 333.388 300.053 333.333H280C271.513 333.333 263.374 336.705 257.373 342.706C251.371 348.707 248 356.847 248 365.333V458.667C248 463.618 249.967 468.365 253.467 471.866C256.968 475.367 261.716 477.333 266.667 477.333H416C420.951 477.333 425.699 475.367 429.199 471.866C432.7 468.365 434.667 463.618 434.667 458.667V409.333L465.6 386.133C469.243 383.403 472.2 379.862 474.236 375.791C476.273 371.72 477.333 367.23 477.333 362.677V256C477.329 251.653 476.36 247.361 474.496 243.433C472.632 239.506 469.919 236.041 466.554 233.289C463.188 230.537 459.254 228.566 455.035 227.519C450.816 226.471 446.416 226.373 442.155 227.232Z" fill="black"/>
<path d="M341.333 322.667C375.207 322.667 402.667 295.207 402.667 261.333C402.667 227.46 375.207 200 341.333 200C307.46 200 280 227.46 280 261.333C280 295.207 307.46 322.667 341.333 322.667Z" fill="black"/>
<path d="M261.333 34.6667H58.6665C52.3039 34.6752 46.2043 37.2065 41.7053 41.7055C37.2063 46.2046 34.675 52.3042 34.6665 58.6667V197.333C34.675 203.696 37.2063 209.796 41.7053 214.295C46.2043 218.794 52.3039 221.325 58.6665 221.333H143.541C145.413 221.332 147.225 221.989 148.661 223.189L190.709 258.229C193.434 260.503 196.751 261.952 200.271 262.408C203.79 262.863 207.367 262.306 210.581 260.801C213.795 259.297 216.513 256.907 218.418 253.912C220.322 250.918 221.334 247.442 221.333 243.893V229.333C221.336 227.213 222.18 225.179 223.679 223.68C225.179 222.18 227.212 221.336 229.333 221.333H261.333C267.696 221.325 273.795 218.794 278.294 214.295C282.793 209.796 285.325 203.696 285.333 197.333V58.6667C285.325 52.3042 282.793 46.2046 278.294 41.7055C273.795 37.2065 267.696 34.6752 261.333 34.6667ZM224 157.333H95.9998C93.8781 157.333 91.8433 156.491 90.343 154.99C88.8427 153.49 87.9998 151.455 87.9998 149.333C87.9998 147.212 88.8427 145.177 90.343 143.677C91.8433 142.176 93.8781 141.333 95.9998 141.333H224C226.122 141.333 228.156 142.176 229.657 143.677C231.157 145.177 232 147.212 232 149.333C232 151.455 231.157 153.49 229.657 154.99C228.156 156.491 226.122 157.333 224 157.333ZM224 104H138.667C136.545 104 134.51 103.157 133.01 101.657C131.509 100.157 130.667 98.1218 130.667 96.0001C130.667 93.8784 131.509 91.8435 133.01 90.3432C134.51 88.8429 136.545 88.0001 138.667 88.0001H224C226.122 88.0001 228.156 88.8429 229.657 90.3432C231.157 91.8435 232 93.8784 232 96.0001C232 98.1218 231.157 100.157 229.657 101.657C228.156 103.157 226.122 104 224 104ZM469.333 477.333H213.333C211.211 477.333 209.177 476.491 207.676 474.99C206.176 473.49 205.333 471.455 205.333 469.333C205.333 467.212 206.176 465.177 207.676 463.677C209.177 462.176 211.211 461.333 213.333 461.333H469.333C471.455 461.333 473.49 462.176 474.99 463.677C476.49 465.177 477.333 467.212 477.333 469.333C477.333 471.455 476.49 473.49 474.99 474.99C473.49 476.491 471.455 477.333 469.333 477.333Z" fill="black"/>
</svg>
