<svg width="683" height="683" viewBox="0 0 683 683" fill="none" xmlns="http://www.w3.org/2000/svg">
<path d="M517.467 18.6666C481.467 26.5333 451.6 47.3333 437.6 74.4C429.6 89.7333 427.6 98.8 428.267 118.267L428.667 134.4L418.4 145.067C407.467 156.267 406.134 159.467 410.534 163.867C412.534 165.867 415.734 166.4 429.067 166.933L445.2 167.6L456.134 177.867C482 202.267 513.067 213.067 552.667 211.6C580.934 210.533 600.267 204.533 622.267 189.867C641.067 177.467 655.6 158.8 661.734 139.333C664.134 131.733 664.667 126.933 664.667 113.333C664.534 98.6666 664.134 95.4666 661.067 86.9333C655.867 72.5333 650 63.4666 638 51.4666C622.8 36.1333 603.467 25.6 580.667 19.7333C564.267 15.7333 533.867 15.2 517.467 18.6666ZM507.6 104.667C516.534 110.933 511.867 125.333 500.934 125.333C496.667 125.333 491.2 120.933 490.134 116.667C489.2 112.8 492.134 106.133 495.6 104.133C499.067 102.133 504.267 102.4 507.6 104.667ZM554 106C560.934 112.8 556.134 125.333 546.8 125.333C536.534 125.333 531.467 112.4 539.2 105.867C544 101.733 549.867 101.733 554 106ZM599.334 106C606.267 112.8 601.467 125.333 592.134 125.333C581.867 125.333 576.8 112.4 584.534 105.867C589.334 101.733 595.2 101.733 599.334 106Z" fill="black"/>
<path d="M261.333 90C240.267 95.2 224.4 107.733 214.8 126.933C194.667 166.8 216 214.667 258.8 226C268.533 228.667 287.067 228.533 296.133 225.867C319.6 218.933 335.733 203.467 343.733 180.8C348 168.4 348.133 150.133 344.133 137.2C333.333 102.667 296 81.4666 261.333 90Z" fill="black"/>
<path d="M353.334 203.733C351.467 207.2 345.2 214.8 339.334 220.8C322 238.267 301.867 246.667 277.334 246.667C270.267 246.667 261.067 245.733 256.667 244.667C246.267 242 231.6 234.933 223.6 228.8L217.334 224L213.2 226.933C204.134 233.6 194 249.6 138.8 343.733L81.2002 442L117.6 442.4C145.467 442.667 154.267 442.267 155.334 441.067C156.267 440.133 174.267 411.333 195.334 376.933C216.534 342.667 234 314.8 234.134 315.067C234.4 315.2 234 345.6 233.334 382.533L232.134 449.6L237.334 456.133C242.667 462.933 242 461.067 268 542.533C272.534 556.667 276.667 567.733 277.2 567.2C277.734 566.533 286.8 550.933 297.334 532.667C318.267 496 326.4 486 339.6 479.867L346.534 476.8L341.467 471.333C325.6 454.133 316 430.667 316 409.2C316 385.733 329.6 356.533 347.334 342C356.134 334.933 367.6 328.267 375.6 325.733C382.4 323.6 382.667 323.333 382.667 318.8C382.534 316.133 381.734 308 380.8 300.667C379.867 293.333 379.067 287.2 379.2 287.067C379.867 286.267 422.267 303.067 424.4 305.067C428.134 308.267 430.934 315.733 430.134 319.867C429.467 323.2 430.134 323.733 442.4 329.6C452.4 334.267 458 338.133 465.467 345.067L475.467 354.4L482.267 333.6C490.8 307.733 491.6 302.933 488.8 291.867C486.4 282.933 482.8 276.4 476.8 270.4C472.267 266 396.8 214 386.667 208.267C380 204.533 368.4 200.133 360 198.267C357.067 197.467 356.267 198.267 353.334 203.733Z" fill="black"/>
<path d="M394.667 340C378.934 342.133 365.334 349.467 353.867 361.733C318.134 399.867 335.2 461.6 385.6 476.933C396.267 480.133 414.534 479.867 426.134 476.267C448.8 469.333 466.667 450.533 472.8 427.333C475.334 418.133 475.2 399.467 472.534 390.533C463.734 361.2 440.534 342 410.667 339.6C405.867 339.2 398.667 339.467 394.667 340Z" fill="black"/>
<path d="M27.0668 463.333C21.8668 465.6 17.3335 472.533 17.3335 478.267C17.3335 482.4 70.4002 650.8 73.7335 657.2C74.5335 658.933 77.2002 661.6 79.3335 662.933C83.2002 665.2 92.4002 665.333 304.134 665.333C550.534 665.333 531.6 666.133 543.2 655.867C546.534 652.933 550.8 647.2 552.934 642.933C556 636.667 556.667 633.733 556.534 625.333C556.534 619.2 555.6 613.467 554.267 610.4C550.267 600.933 489.067 512.933 481.734 505.733C477.334 501.467 471.734 497.6 466.934 495.733C459.467 492.667 458.534 492.667 407.334 492.667H355.334L347.734 496.4C343.467 498.533 338.134 502.533 335.734 505.333C332 509.733 293.334 574.8 293.334 576.667C293.334 577.067 330.8 577.333 376.534 577.333C458.534 577.333 459.734 577.333 463.2 580.133C467.067 583.2 467.867 588.667 464.8 592.8C462.134 596.4 449.6 597.067 377.867 597.2C311.067 597.333 309.734 597.467 300.8 606.133C293.2 613.6 291.334 618 291.334 629.733V640.133L285.467 639.733L279.6 639.333L252.667 554.8C228.667 479.733 225.2 469.867 221.467 466.133L217.334 462L124.267 461.733C46.5335 461.467 30.6668 461.733 27.0668 463.333Z" fill="black"/>
</svg>
