<svg width="512" height="512" viewBox="0 0 512 512" fill="none" xmlns="http://www.w3.org/2000/svg">
<g clip-path="url(#clip0_394_941)">
<path d="M164.952 299.429C185.238 302.475 210 297.809 237.048 296.19C242.095 297.332 247.143 298.095 252.381 298.095C257.714 298.095 262.953 297.332 268.191 296.095C338.572 299.524 393.429 319.429 393.429 176.19C393.429 78.9524 330.286 0 252.381 0C174.476 0 111.333 78.9524 111.333 176.19C111.333 254.381 126.286 284.762 150.572 295.333C155.048 297.429 159.905 298.667 164.952 299.429ZM142.476 121.238C157.238 141.714 195.524 137.333 228.572 111.429C236.952 104.857 244.286 97.3333 250.191 89.7143C250.953 89.8095 251.714 89.9048 252.476 90.0952C255.714 90.6667 258.667 91.8095 262 92.8571C264.953 94.2857 268.191 95.4286 271.048 97.2381C274.001 98.7619 276.667 100.857 279.333 102.667C281.714 104.762 284.381 106.762 286.381 109.048C288.475 111.143 290.476 113.429 291.999 115.619C293.713 117.714 294.952 119.905 296.19 121.81C297.427 123.714 298.474 125.429 299.047 126.952C300.475 129.905 301.332 131.619 301.332 131.619C301.332 131.619 301.046 129.81 300.475 126.476C300.285 124.762 299.809 122.857 299.237 120.571C298.665 118.286 297.998 115.619 296.856 112.952C295.904 110.19 294.571 107.333 293.047 104.286C291.618 101.238 289.523 98.2857 287.522 95.0476C285.141 92.0952 282.951 88.8571 280.093 86C277.427 82.9524 274.189 80.381 271.046 77.619C268.093 75.5238 264.952 73.2381 261.618 71.4286C263.047 68.4762 264.189 65.4286 265.141 62.5714C276.951 67.9048 289.047 74.6667 298.665 84.2857C333.999 119.619 320.093 160.667 347.332 133.524C351.618 129.238 355.141 124.762 357.904 120.286C358.856 120.286 359.809 120.19 360.571 120.381C364.285 121.333 366.666 124.19 367.999 126.476C371.713 132.667 372.572 141.619 370.285 150.571C366.856 163.905 358.094 171.81 351.047 172.667L345.333 173.429L343.81 179.048C330.286 228.095 293.81 280.286 252.572 280.286C211.333 280.286 174.952 228.095 161.333 179.048L159.81 173.429L154.095 172.667C147.143 171.714 138.286 163.81 134.857 150.571C132.572 141.619 133.429 132.667 137.143 126.476C138 124.762 139.905 122.571 142.476 121.238ZM358.381 312.286C347.333 331.142 334.476 347.048 317.524 355.809C282.476 373.713 256.382 388.38 256.382 388.38L256.286 388.285V387.998L256 388.189L255.714 387.998V388.285L255.619 388.38C255.619 388.38 229.619 373.904 194.476 355.809C177.524 347.048 164.762 331.142 153.619 312.286C101.714 333.428 65.5239 381.809 65.5239 424.19V511.999H446.476V424.19C446.476 381.905 410.191 333.429 358.381 312.286Z" fill="black"/>
</g>
<defs>
<clipPath id="clip0_394_941">
<rect width="512" height="512" fill="white"/>
</clipPath>
</defs>
</svg>
